<svg width="60" height="60" viewBox="0 0 60 60" fill="none" xmlns="http://www.w3.org/2000/svg">
<path d="M21.4285 27.8583C27.3458 27.8583 32.1428 23.0613 32.1428 17.144C32.1428 11.2266 27.3458 6.42969 21.4285 6.42969C15.5112 6.42969 10.7142 11.2266 10.7142 17.144C10.7142 23.0613 15.5112 27.8583 21.4285 27.8583Z" stroke="black" stroke-linecap="round" stroke-linejoin="round"/>
<path d="M2.14282 57.8602H21.4285H40.7143V55.5369C40.6801 52.2703 39.8186 49.0654 38.2102 46.2223C36.6018 43.3787 34.299 40.9894 31.5168 39.2773C28.7346 37.5652 25.5639 36.5862 22.3008 36.4317C22.0099 36.418 21.719 36.4108 21.4285 36.4102C21.1381 36.4108 20.8472 36.418 20.5563 36.4317C17.2932 36.5862 14.1225 37.5652 11.3403 39.2773C8.55811 40.9894 6.25527 43.3787 4.64684 46.2223C3.03844 49.0654 2.17694 52.2703 2.14282 55.5369V57.8602Z" stroke="black" stroke-linecap="round" stroke-linejoin="round"/>
<path d="M38.5714 27.8583C44.4887 27.8583 49.2857 23.0613 49.2857 17.144C49.2857 11.2266 44.4887 6.42969 38.5714 6.42969" stroke="black" stroke-linecap="round" stroke-linejoin="round"/>
<path d="M49.2856 57.8582H57.8571V55.5344C57.8228 52.2679 56.9613 49.063 55.3529 46.2199C53.7445 43.3763 51.4418 40.9871 48.6595 39.275C46.8612 38.1682 44.9001 37.3678 42.8571 36.8984" stroke="black" stroke-linecap="round" stroke-linejoin="round"/>
</svg>
