<svg width="60" height="60" viewBox="0 0 60 60" fill="none" xmlns="http://www.w3.org/2000/svg">
<path d="M15 17.1445V2.14453L30 10.716L45 2.14453V17.1445C45 25.4288 38.2843 32.1445 30 32.1445C21.7157 32.1445 15 25.4288 15 17.1445Z" stroke="#000" stroke-linecap="round" stroke-linejoin="round"/>
<path d="M30 32.1445V57.8588" stroke="#000" stroke-linecap="round" stroke-linejoin="round"/>
<path d="M30 53.572V57.8577H40.7143C47.8153 57.8577 53.5714 52.1016 53.5714 45.0006V42.8577C53.5714 41.6742 52.6119 40.7148 51.4286 40.7148H42.8571C35.7564 40.7148 30 46.471 30 53.572Z" stroke="#000" stroke-linecap="round" stroke-linejoin="round"/>
<path d="M6.42859 42.8577V45.0006C6.42859 52.1016 12.1849 57.8577 19.2857 57.8577H30V53.572C30 46.471 24.2437 40.7148 17.1429 40.7148H8.57145C7.38799 40.7148 6.42859 41.6742 6.42859 42.8577Z" stroke="#000" stroke-linecap="round" stroke-linejoin="round"/>
</svg>
