<svg width="66" height="66" viewBox="0 0 66 66" fill="none" xmlns="http://www.w3.org/2000/svg">
<path d="M32 38.95H22.3799H22.3798L22.3101 38.95C21.6662 38.9501 21.0749 38.9502 20.6118 38.8815C20.1151 38.8078 19.5091 38.6208 19.1296 38.0269M32 38.95L19.1296 38.0269M32 38.95V55.4799L32 55.533C31.9999 55.9321 31.9999 56.3117 32.0303 56.5942C32.0456 56.7369 32.0769 56.9507 32.1698 57.1586C32.2728 57.389 32.5127 57.7325 32.9811 57.8357C33.4495 57.9388 33.8116 57.7279 34.0018 57.5621C34.1735 57.4125 34.2917 57.2316 34.3656 57.1086C34.5118 56.865 34.6713 56.5205 34.8389 56.1582L34.8612 56.1101L46.3425 31.3104L46.3718 31.2472C46.6424 30.6628 46.8909 30.1263 47.0232 29.6771C47.165 29.1954 47.2499 28.567 46.8704 27.9731C46.4909 27.3792 45.8849 27.1922 45.3882 27.1185C44.9251 27.0498 44.3338 27.0499 43.6898 27.05L43.6201 27.05H34V10.5201C34 10.5024 34 10.4847 34 10.467C34.0001 10.0679 34.0001 9.6883 33.9697 9.4058C33.9544 9.26307 33.9231 9.0493 33.8302 8.84138C33.7272 8.61098 33.4873 8.26749 33.0189 8.16432C32.5505 8.06116 32.1884 8.27206 31.9982 8.43788C31.8265 8.58752 31.7083 8.76837 31.6344 8.89144C31.4882 9.13504 31.3287 9.47953 31.1611 9.84177C31.1537 9.85779 31.1462 9.87385 31.1388 9.88994L19.6575 34.6896L19.6282 34.7529C19.3575 35.3372 19.1091 35.8738 18.9768 36.3229C18.835 36.8046 18.7501 37.433 19.1296 38.0269M32 38.95L19.1296 38.0269M32.6247 56.1197C32.6247 56.1196 32.6253 56.1188 32.6266 56.1171C32.6253 56.1189 32.6247 56.1198 32.6247 56.1197ZM34.0255 56.4282C34.0255 56.4283 34.0253 56.4273 34.0249 56.4253C34.0253 56.4272 34.0255 56.4282 34.0255 56.4282ZM33.3753 9.88029C33.3753 9.88032 33.3747 9.88115 33.3735 9.88269C33.3747 9.88103 33.3753 9.88026 33.3753 9.88029ZM31.9745 9.57175C31.9745 9.57173 31.9747 9.57268 31.9751 9.57469C31.9747 9.57279 31.9745 9.57178 31.9745 9.57175Z" stroke="#49E9B0" stroke-width="2"/>
</svg>
