<svg id="Ebene_1" data-name="Ebene 1" xmlns="http://www.w3.org/2000/svg" viewBox="0 0 30 30"><defs><style>.cls-1{fill:#ff7401;}</style></defs><title>logo_new_60px</title><path class="cls-1" d="M404.21,422.49A5.81,5.81,0,0,1,410,428.3v8.22a5.81,5.81,0,0,1-5.81,5.81H396a5.82,5.82,0,0,1-5.81-5.81V428.3a5.82,5.82,0,0,1,5.81-5.81h8.22m0-5.08H396A10.9,10.9,0,0,0,385.1,428.3v8.22A10.9,10.9,0,0,0,396,447.41h8.22a10.89,10.89,0,0,0,10.89-10.89V428.3a10.89,10.89,0,0,0-10.89-10.89Z" transform="translate(-385.1 -417.41)"/></svg>