<svg id="Ebene_1" data-name="Ebene 1" xmlns="http://www.w3.org/2000/svg" viewBox="0 0 78.41 94.7"><defs><style>.cls-1{fill:#ff7401;}</style></defs><title>logo_new_black</title><path class="cls-1" d="M410.85,406.48A15.2,15.2,0,0,1,426,421.66v21.5a15.2,15.2,0,0,1-15.18,15.18H389.36a15.21,15.21,0,0,1-15.19-15.18v-21.5a15.21,15.21,0,0,1,15.19-15.18h21.49m0-13.28H389.36a28.46,28.46,0,0,0-28.46,28.46v21.5a28.46,28.46,0,0,0,28.46,28.46h21.49a28.46,28.46,0,0,0,28.46-28.46v-21.5a28.46,28.46,0,0,0-28.46-28.46Z" transform="translate(-360.9 -393.2)"/><path d="M367.33,487.05l.51-.67a2.79,2.79,0,0,0,1.8.72c.8,0,1.2-.43,1.2-1s-.72-.9-1.4-1.16c-.85-.31-1.81-.73-1.81-1.76s.78-1.73,2.1-1.73a3,3,0,0,1,1.89.69l-.49.66a2.29,2.29,0,0,0-1.39-.54c-.77,0-1.12.41-1.12.87s.66.8,1.35,1.06c.88.33,1.86.69,1.86,1.85,0,1-.79,1.81-2.22,1.81A3.66,3.66,0,0,1,367.33,487.05Z" transform="translate(-360.9 -393.2)"/><path d="M374.2,479.73a.72.72,0,0,1,1.43,0,.72.72,0,0,1-1.43,0Zm.19,1.92h1v6.1h-1Z" transform="translate(-360.9 -393.2)"/><path d="M378.6,481.65h.86l.08.89h0a2.7,2.7,0,0,1,1.9-1,1.61,1.61,0,0,1,1.68,1.16,2.89,2.89,0,0,1,2-1.16c1.25,0,1.85.83,1.85,2.39v3.86h-1V484c0-1.14-.36-1.62-1.13-1.62a2.25,2.25,0,0,0-1.53.93v4.42h-1V484c0-1.14-.36-1.62-1.14-1.62a2.27,2.27,0,0,0-1.52.93v4.42h-1Z" transform="translate(-360.9 -393.2)"/><path d="M390.05,485.52v-3.87h1v3.73c0,1.14.34,1.62,1.15,1.62.62,0,1.06-.3,1.63-1v-4.33h1v6.1H394l-.08-1h0a2.57,2.57,0,0,1-2,1.11C390.63,487.9,390.05,487.07,390.05,485.52Z" transform="translate(-360.9 -393.2)"/><path d="M398.08,486.53v-7.72h1v7.79c0,.32.14.44.29.44l.23,0,.14.78a1.55,1.55,0,0,1-.6.1C398.4,487.9,398.08,487.41,398.08,486.53Z" transform="translate(-360.9 -393.2)"/><path d="M402,486.17c0-1.33,1.15-2,3.74-2.28,0-.78-.26-1.54-1.25-1.54a3.36,3.36,0,0,0-1.82.66l-.41-.71a4.47,4.47,0,0,1,2.4-.8c1.49,0,2.12,1,2.12,2.51v3.74H406l-.08-.73h0a3.25,3.25,0,0,1-2,.88A1.66,1.66,0,0,1,402,486.17Zm3.74.09v-1.69c-2,.24-2.73.75-2.73,1.52s.47,1,1.07,1A2.5,2.5,0,0,0,405.77,486.26Z" transform="translate(-360.9 -393.2)"/><path d="M409.86,485.87v-3.38H409v-.78l1-.06.12-1.71h.86v1.71h1.66v.84h-1.66v3.39c0,.75.24,1.18.95,1.18a2.1,2.1,0,0,0,.69-.16l.2.77a3.55,3.55,0,0,1-1.13.23C410.3,487.9,409.86,487.08,409.86,485.87Z" transform="translate(-360.9 -393.2)"/><path d="M414.86,479.73a.72.72,0,0,1,1.43,0,.72.72,0,0,1-1.43,0Zm.19,1.92h1v6.1h-1Z" transform="translate(-360.9 -393.2)"/><path d="M418.81,484.71a2.85,2.85,0,1,1,2.83,3.19A2.92,2.92,0,0,1,418.81,484.71Zm4.59,0c0-1.4-.72-2.35-1.76-2.35s-1.76.95-1.76,2.35.71,2.33,1.76,2.33S423.4,486.11,423.4,484.71Z" transform="translate(-360.9 -393.2)"/><path d="M427.19,481.65H428l.09.88h0a2.92,2.92,0,0,1,2-1c1.28,0,1.86.83,1.86,2.39v3.86h-1V484c0-1.14-.34-1.62-1.15-1.62a2.32,2.32,0,0,0-1.67.93v4.42h-1Z" transform="translate(-360.9 -393.2)"/></svg>